<?xml version="1.0" standalone="no"?>
<?xml-stylesheet href='http://localhost:3000/assets/application.css' type='text/css'?>  
<!DOCTYPE svg PUBLIC "-//W3C//DTD SVG 1.1//EN"
  "http://www.w3.org/Graphics/SVG/1.1/DTD/svg11.dtd">
<svg width="333" height="333" version="1.1"
  xmlns="http://www.w3.org/2000/svg">
<g style="fill:#dd3333;"><text x="175" y="175" font-size="72"  transform="matrix(0.866, -0.5 0.5 0.866 8.84 58.35)"  class="belief"><tspan x="175" dy="0em">A</tspan></text><text x="175" y="175" font-size="72"  transform=" rotate(295, 175,175)"  class="belief"><tspan x="175" dy="0em">K</tspan></text><text x="175" y="175" font-size="72"  transform=" rotate(197, 175,175)"  class="desire"><tspan x="175" dy="0em">H</tspan></text><text x="175" y="175" font-size="72"  transform=" rotate(18, 175,175)"  class="desire"><tspan x="175" dy="0em">O</tspan></text><text x="175" y="175" font-size="72"  transform=" rotate(14, 175,175)"  class="belief"><tspan x="175" dy="0em">C</tspan></text><text x="175" y="175" font-size="72"  transform=" rotate(177, 175,175)"  class="belief"><tspan x="175" dy="0em">O</tspan></text><text x="175" y="175" font-size="72"  transform=" rotate(28, 175,175)"  class="desire"><tspan x="175" dy="0em">D</tspan></text><text x="175" y="175" font-size="72"  transform=" rotate(224, 175,175)"  class="will"><tspan x="175" dy="0em">E</tspan></text></g><circle cx="175" cy="175" r="140" style="stroke:#33cc33;fill:none;stroke-width:20;"/><circle cx="175" cy="175" r="150" style="stroke:#3333cc;fill:none;stroke-width:2;"/><circle cx="175" cy="175" r="130" style="stroke:#3333cc;fill:none;stroke-width:2;"/><circle cx="175" cy="175" r="148" style="stroke:#3333cc;fill:none;stroke-width:2;"/><circle cx="175" cy="175" r="134" style="stroke:#3333cc;fill:none;stroke-width:2;"/></svg>