<?xml version="1.0" standalone="no"?>
<!DOCTYPE svg PUBLIC "-//W3C//DTD SVG 1.1//EN" "http://www.w3.org/Graphics/SVG/1.1/DTD/svg11.dtd" >
<svg>
<metadata>
Created by FontForge 20110222 at Thu Feb 13 12:26:44 2014
 By Orthosie Webhosting
</metadata>
<defs>
<font id="AkhoBelieveBelief" horiz-adv-x="1024" vert-adv-y="1024" >
  <font-face 
    font-family="AkhoBelieveBelief"
    font-weight="400"
    font-stretch="normal"
    units-per-em="1024"
    panose-1="2 0 5 9 0 0 0 0 0 0"
    ascent="819"
    descent="-205"
    cap-height="872"
    bbox="-40 0 1040 1024"
    underline-thickness="0"
    underline-position="0"
    unicode-range="U+0041-0061"
  />
<missing-glyph vert-adv-y="90" 
d="M0 0h1000v1024h-1000v-1024z" />
    <glyph glyph-name=".notdef" vert-adv-y="90" 
d="M0 0h1000v1024h-1000v-1024z" />
    <glyph glyph-name=".notdef" vert-adv-y="90" 
d="M0 0h1000v1024h-1000v-1024z" />
    <glyph glyph-name=".null" horiz-adv-x="0" vert-adv-y="0" 
 />
    <glyph glyph-name="nonmarkingreturn" 
 />
    <glyph glyph-name="glyph 27" unicode="A" vert-adv-y="90" 
d="M472 927q-17 -48 -21 -60q-11 -31 -25 -60q-12 -25 -33 -58q-5 -6 -39 -55q46 21 48 21q28 12 50 14v-246q-17 -1 -25 -3t-21 -6q-9 -3 -19.5 -7t-22.5 -10q-27 -15 -48 -34t-40 -46q-14 -22 -26.5 -49.5t-22.5 -56.5q-2 -4 -6 -22q-5 -18 -9 -27h-171v-44h918v44l-191 1
q-3 7 -4 15.5t-1 20.5q-10 56 -32 97q-24 46 -65 77q-34 23 -71.5 36t-80.5 18v242q23 0 55 -7l61 -14l-46 41q-24 24 -44.5 51t-37.5 57zM482 435q56 0 106 -19.5t82 -60.5q20 -29 32.5 -64.5t12.5 -68.5l-447 2q11 49 31 89t51 71q21 18 41.5 28t50.5 17q10 0 20 2z" />
    <glyph glyph-name="glyph 28" unicode="B" vert-adv-y="90" 
d="M210 857l189 -333l-189 -333h580l-189 333l189 333h-580zM322 788h356l-116 -201l-62 107l-62 -107zM500 569l22 -45l-22 -44l-22 44zM438 462l62 -108l62 108l116 -202h-356z" />
    <glyph glyph-name="glyph 29" unicode="C" vert-adv-y="90" 
d="M500.5 860q-87.5 0 -117.5 -14v-28q98 0 98 -67v-57h-98q-27 0 -49 67l-20 -10q-8 -25 -8 -56q0 -24 6 -50q10 -63 32 -84q12 6 22 53q7 42 27 42h88v-468h40v468h87q33 0 35 -42q1 -47 14 -53q21 21 33 84q4 28 4 53q0 29 -7 53l-20 10q-30 -67 -49 -67h-97v19
q-2 2 0 38q1 67 97 67v28q-30 14 -117.5 14z" />
    <glyph glyph-name="glyph 30" unicode="D" vert-adv-y="90" 
d="M396 893v-38h63v-265h-273v75h-35v-226h35v75h273v-321h-64v-38h195v39h-65v320h292v-75h32v228h-32v-77h-292v266h65v37h-194zM688 869v-77h-63v-39h63v-75h34v76h66v38h-32q-21 1 -32 1q-1 -1 -3 -1v77h-33zM275 866v-76h-64v-40h65v-75h34v76h64v40h-65v75h-34z
M279 440v-76h-62v-40h63v-75h35v75h63v41h-64v75h-35zM685 440v-76h-63v-40h63v-75h35v75h64v41h-64v75q-33 -1 -35 0z" />
    <glyph glyph-name="glyph 31" unicode="E" vert-adv-y="90" 
d="M591.5 874q-60.5 0 -102.5 -42.5t-42 -102.5q0 -86 72 -127l-72 -144l-17 6h-22q-61 0 -103.5 -42.5t-42.5 -102.5q0 -61 43 -103t103.5 -42t102.5 42.5t42 102.5q0 44 -23 78t-60 52l72 143q21 -9 50 -9q49 0 97.5 47t48.5 99q0 61 -43 103t-103.5 42zM592 842
q47 0 78.5 -32.5t31.5 -79t-32 -78.5t-78.5 -32t-79 32.5t-32.5 77.5q-1 47 32 79.5t80 32.5zM408 428q47 0 79 -32t32 -78.5t-32.5 -79t-78.5 -32.5t-79 32.5t-33 79t33.5 78.5t78.5 32z" />
    <glyph glyph-name="glyph 32" unicode="F" vert-adv-y="90" 
d="M270 854q-41 0 -41 -43q0 -11 1 -19l2 -14q17 -131 60 -254l-3 -7q-30 -95 -56 -246l-2 -16q-2 -11 -2 -18q0 -43 41 -43q37 0 44 50l2 13q9 72 26 143q22 -46 47 -90q30 -52 48 -73q36 -43 72 -43q48 0 110 116q21 39 39 81q16 -63 26 -135l2 -12q8 -50 44 -50
q41 0 41 43q0 11 -1 19l-2 14q-17 131 -60 254l3 7q30 95 56 246l2 16q2 11 2 18q0 43 -41 43q-37 0 -44 -50l-2 -13q-9 -72 -26 -143q-22 46 -47 90q-30 52 -48 73q-36 43 -72 43q-48 0 -110 -116q-21 -39 -39 -81q-16 63 -26 135l-2 12q-8 50 -44 50zM493 763
q70 -90 120 -221l8 -22q-48 -137 -114 -235q-70 90 -120 221l-8 22q48 137 114 235zM500 558q-28 0 -28 -36q0 -17 5.5 -24.5t21.5 -7.5q29 0 29 35q0 33 -28 33z" />
    <glyph glyph-name="glyph 33" unicode="G" vert-adv-y="90" 
d="M501 789q-167 0 -294.5 -126.5t-127.5 -293.5q14 78 95 137q66 50 168 78q86 25 160.5 25t158.5 -23q97 -28 162 -77q78 -59 98 -143q0 177 -123.5 300t-296.5 123zM493 740q108 0 195 -51q80 -48 144 -141q-57 49 -150 76q-83 23 -171 23q-92 0 -179 -21
q-104 -26 -164 -73q51 91 135 139t190 48zM-40 316v-57h1080v57h-1080z" />
    <glyph glyph-name="glyph 34" unicode="H" vert-adv-y="90" 
d="M693 901l-62 -113q-15 -26 -48 -52l-58 59q-9 12 -52 92q-47 -64 -64 -105q-10 -24 -45 -59l-38 59l-58 78l-2 -18v-18q0 -56 23 -107t47 -89l-46 -86l-22 -45q2 -16 62 -100l120 -157q65 -81 78 -93q55 73 105 172q38 71 74 158l27 68q0 23 -41 62.5t-41 67.5
q0 34 22 85t22 97zM473 723q30 -24 97.5 -104.5t67.5 -86.5l-14 -28l-43 -82l-67 -124q-66 80 -111 146q-18 24 -39 60q2 13 58 108q33 54 51 111z" />
    <glyph glyph-name="glyph 35" unicode="I" vert-adv-y="90" 
d="M497 872l-104 -271q-42 0 -132 0.5t-137 0.5l109 -77q47 -35 103 -86l-40 -126q-18 -56 -48 -131l243 157q135 -92 149 -102l81 -61q-18 72 -52 160l-38 96q10 15 63 50l101 66q62 39 81 54q-75 0 -150 -1l-151 -1q-28 86 -42 135q-22 77 -36 137zM488 714l26 -72
q10 -29 15 -45q-23 0 -45 1l-42 2q11 32 28 70zM545 555l12 -40q18 -61 20 -66l-86 -58q-57 36 -101 67l17 51q5 15 17 45zM378 554l-25 -70l-53 40l-32 25zM590 554q19 0 62 -2q41 -3 63 -3q-29 -19 -50 -35l-49 -39zM376 415q19 -13 28 -18q22 -15 46 -32q-10 -6 -39 -23
l-67 -39q7 28 11 41zM591 406l26 -93l-87 52z" />
    <glyph glyph-name="glyph 36" unicode="J" vert-adv-y="90" 
d="M198 934v-604h280v-216h231v45h-180v171h273v604h-604zM265 886h479v-496h-215v120h-51v-120h-213v496z" />
    <glyph glyph-name="glyph 37" unicode="K" vert-adv-y="90" 
d="M501 817q-32 0 -49 -26q-8 -14 -8 -29t7 -28.5t19 -21t29 -7.5q14 0 28 7t21.5 19t7.5 29q0 32 -20 44.5t-35 12.5zM765 349q-32 0 -49 -26q-8 -14 -8 -29t7 -28.5t19 -21t29 -7.5q14 0 28 7t21.5 19t7.5 29q0 32 -20 44.5t-35 12.5zM237 343q-32 0 -49 -26
q-8 -14 -8 -29t7 -28.5t19 -21t29 -7.5q14 0 28 7t21.5 19t7.5 29q0 32 -20 44.5t-35 12.5z" />
    <glyph glyph-name="glyph 38" unicode="L" vert-adv-y="90" 
d="M469 857v-258l-226 227l-45 -44l227 -227h-258v-62h258l-227 -226l45 -45l226 227v-258h62v258l226 -227l45 45l-227 226h258v62h-258l227 227l-45 44l-226 -227v258h-62z" />
    <glyph glyph-name="glyph 39" unicode="M" vert-adv-y="90" 
d="M500 930q-104 0 -176.5 -73t-73.5 -177h-140v-94h234v94q0 65 45.5 110.5t111 45.5t110.5 -45.5t45 -110.5v-94h234v94h-140q0 104 -73 177t-177 73zM110 462v-94h140q0 -104 73 -177t177.5 -73t177 73t72.5 177h140v94h-234v-94q0 -65 -45 -110.5t-110.5 -45.5
t-111 45.5t-45.5 110.5v94h-234z" />
    <glyph glyph-name="glyph 40" unicode="N" vert-adv-y="90" 
d="M470 924l-2 -8q6 -16 6 -29q0 -62 5 -78q-3 0 -11 -1t-12 -1q-53 0 -143 13q-6 -12 -4 -20q3 -6 3 -16q0 1 -1 -2q3 -22 4 -35l-2 -1q-1 -6 8 -9q29 8 76 9h77v-8v1l2 -3q-3 -13 -2 -30q0 2 -2 1q-29 -2 -76 4q-53 7 -74 7q-4 0 -6 -2l-1 -78q0 -6 6 -7q12 2 60 5t53 2.5
t30 -0.5h9q-7 -16 -7 -26q1 -22 -2 -35l-3 -20v-14q0 -3 2 -6h-2q1 -27 -2 -40q-65 -17 -85 -31q-8 -1 -24 -8l1 -1q-28 -15 -41 -23l1 -2q-21 -12 -29 -20q2 0 0 -2q-5 -1 -18.5 -13t-15.5 -12l-29 -27l1 -1l-27 -34l1 -4h-3l1 -3l-4 -4q-5 -12 -7 -18l-1 1q0 -3 -1 -5
l-5 -7v-5q-7 -6 -13 -22q-3 -2 -3 -3l2 -4q-10 -13 -13 -21q-2 -12 -2 -17q8 -19 13 -22l-1 -2q10 -12 13 -19l14 -9l8 15h-1q-2 6 14 28q18 28 19 30q5 12 9 16q1 5 3 5h1q5 14 20 27l4 9q3 -1 5 3t3 4l3 -1q12 23 42 42l5 1q22 14 35 20q7 8 25 10q12 7 20 9q26 11 34 12
l-1 1q5 2 26 3t26 5l4 -2h-1l1 -1l4 4l16 1l11 -1q4 1 12 -1q8 -3 13 0q23 -6 34 -8l-5 -1q6 0 17.5 -4.5t15.5 -5.5q24 -17 32 -25q12 -6 17 -12q2 2 4 -1.5t4 -3.5h2q14 -9 20 -14l-3 -2q35 -24 42 -43l5 -4q1 -16 18 -29q-1 0 -2 -2q0 -2 2 -2l1 1q26 -49 30 -54l-3 -2h2
l2 -10q8 -9 9 -15q3 -11 6 -17q0 -2 2 -7t2 -8v-3l2 -2q4 2 5 1q26 22 37 34q3 8 8 7h3q2 3 2 6q0 2 -3 7.5t-1 9.5q-8 32 -14 46h1q-8 8 -10 21h-2q-1 2 -6.5 10t-4.5 13v1l-1 -1q-13 29 -20 42l-3 6q-11 15 -18 29q-6 4 -14 15l-1 -1l-4 10q-7 0 -11 9l2 1h1l-9 2l1 3l1 1
q-3 1 -3 -2q-14 15 -45 31q-36 18 -48 28l-12 3l1 2q-9 0 -21 6q-40 7 -59 12l-5 8q-3 43 -3 49h-2l2 6q-4 18 -3 27q-1 -1 -1 13l1 4q2 6 2 11q-2 18 -2 19h1l-1 4l1 1v8q-2 2 -2 6.5t-1 6.5q24 0 28 2q27 -11 99 -8l23 1q15 -6 33 -5h6q2 10 2 14l-1 1l1 6l1 -1
q0 2 -1 4.5t-1 4.5q-1 5 4 38q-2 3 -1 7l2 6v2l-8 2q-43 -8 -169 2q-3 1 -3 4l1 3h1l1 19l-3 4q2 5 9 5l28 -2q9 0 12 -1l-3 -1h2q90 0 126 -10q6 0 6 10q-1 12 0 13q-3 13 0 30l-1 -1l-2 3l3 15l-2 1q0 1 1 2.5t1 2.5q0 10 -5 10q-9 0 -27 -4t-27 -4v-2q-81 -2 -121 -2
q-1 -2 -1 23q0 4 2 7q1 5 0 24q0 15 3 25h1l-2 5q3 5 3.5 14.5t0.5 14.5l-1 1h-90zM739 396q0 -1 1 -2q0 3 -1 2zM319 338l-3 -1h4zM237 253q2 -2 2 0h-2z" />
    <glyph glyph-name="glyph 41" unicode="O" vert-adv-y="90" 
d="M456 815q-67 0 -234 -49q-186 -55 -186 -98q0 -51 208 -105q179 -46 261 -46q77 0 255 45q204 52 204 98q0 50 -157 106q-139 49 -207 49h-144zM520 773q242 0 387 -103q-39 -47 -185 -84q-126 -31 -209 -31q-90 0 -216 29q-132 31 -204 72l-2 6q67 57 204 87
q111 24 225 24zM493 773q-36 0 -66 -31t-30 -67q0 -43 32 -75t75 -32q36 0 65.5 31t29.5 67q0 44 -31 75.5t-75 31.5zM491 749q35 0 61 -23t26 -57q0 -33 -23.5 -56.5t-56.5 -23.5q-32 0 -56 24.5t-24 56.5q0 29 21.5 54t51.5 25zM498 702q-12 0 -22.5 -10.5t-10.5 -23
t11.5 -24.5t23.5 -12t21.5 11t9.5 24q0 10 -11 22.5t-22 12.5zM496 675q4 0 7 -3t3 -6q0 -9 -10 -9q-5 0 -5 7q0 11 5 11zM499 464q-18 0 -18 -18l-1 -195q0 -18 18 -18q19 0 19 18l1 195q0 18 -19 18z" />
    <glyph glyph-name="glyph 42" unicode="P" vert-adv-y="90" 
d="M500 879l-102 -170h-216l107 -184l-105 -178h212l104 -178l106 178h211l-106 178l107 184h-215zM497 774l39 -64h-76zM273 656h92l-46 -77zM427 656h140l76 -128l-70 -129h-144l-79 130zM637 656h83l-41 -70zM317 475l46 -76h-92zM681 466l36 -67h-76zM466 347h80
l-43 -67z" />
    <glyph glyph-name="glyph 43" unicode="Q" vert-adv-y="90" 
d="M23 782q55 0 103 -75q20 -42 30 -83q13 -49 13 -99q0 -47 -12 -94.5t-31 -86.5q-25 -38 -50 -58t-53 -20q49 0 93.5 20t87.5 58q22 22 38 50q15 26 24 56q23 -76 88 -125.5t145.5 -49.5t145 50.5t88.5 125.5q17 -62 62 -107q41 -37 87 -57.5t95 -20.5q-53 0 -104 78
q-19 38 -31 85.5t-12 95.5q0 50 13 99q10 42 30 83q48 75 104 75q-102 0 -182 -75q-23 -23 -38.5 -50.5t-23.5 -57.5q-20 65 -71.5 108t-119.5 55q-16 3 -20 4q-11 2 -12 2t-8 -1.5t-33 -1.5q-73 -9 -127.5 -53.5t-75.5 -112.5q-15 61 -62 108q-81 75 -181 75zM489 726h7
q6 -1 8 -1q85 -10 141.5 -67t56.5 -138q0 -94 -53.5 -151t-144.5 -57q-84 0 -145 59q-65 61 -65 149q0 79 61 142.5t134 63.5zM144 725q34 -23 61 -58q24 -31 41 -73q3 -12 5.5 -29.5t2.5 -29.5v-12v-12q0 -18 -1.5 -33t-6.5 -31q-19 -39 -45 -69t-57 -48q9 15 17 28
q10 31 13 46q7 23 8 40l6 25q3 9 3 17q2 21 2 40t-2 40q-4 19 -7 39t-5 39q-6 5 -7 15l-3 16zM857 725l-13 -23q-8 -14 -14 -27q0 -2 -3 -15t-7 -16q-2 -18 -6 -43l-6 -35v-80q0 -11 4 -23l5 -19q5 -37 22 -86q1 -6 7 -13l11 -15q-33 18 -59 48q-25 29 -46 69q-3 16 -5 33
t-2 34v9v6q0 15 2 31.5t5 33.5q17 40 43.5 74t61.5 57z" />
    <glyph glyph-name="glyph 44" unicode="R" vert-adv-y="90" 
d="M500 924l-118 -126h76v-186l-126 135l54 63h-172v-172l63 54l135 -127h-185v77l-128 -118l128 -117v76h185l-135 -127l-63 54v-172h172l-54 63l126 135v-186h-76l118 -126l118 126h-76v186l126 -135l-54 -63h172v172l-63 -54l-135 127h185v-76l128 117l-128 118v-77h-185
l135 127l63 -54v172h-172l54 -63l-126 -135v186h76z" />
    <glyph glyph-name="glyph 45" unicode="S" vert-adv-y="90" 
d="M469 917q-14 -3 -17 -3q-48 -4 -87 -25q-19 -10 -38 -25q-15 -13 -32 -32q-28 -35 -49 -80q-17 -38 -29 -90l-13 -24h-161v-44h418v-266q-26 3 -61 18l-36 17l32 -46l6 -8q24 -38 44 -86q14 -32 34 -92l19 44l6 12q11 25 29 50q15 21 36 47q34 36 67 66l-58 -14
q-15 -3 -29.5 -5.5t-27.5 -2.5v266h435v44h-186q-9 46 -13 67q-8 40 -22 67q-9 22 -24 43q-13 16 -32 36q-41 35 -95.5 50.5t-115.5 15.5zM497 866q23 0 43 -4t45 -14q40 -15 67.5 -43.5t44 -71t16.5 -95.5l-446 1v8l1 9q18 72 47 116q38 59 96 79q10 5 16 6.5t40 6.5
q12 2 30 2z" />
    <glyph glyph-name="glyph 46" unicode="T" vert-adv-y="90" 
d="M494 899q-92 1 -124 -89t17 -172q48 -76 50 -78q0 -1 1 -2l-146 24l3 -126q46 9 91 15q43 5 68 5q0 -70 -6.5 -154t-27.5 -174q44 3 92 2q48 -2 75 -2q-18 48 -25 156.5t-10 171.5q28 0 65.5 -11t90.5 -15v129q-47 -5 -82 -12t-58 -10q24 25 32.5 41t27.5 56
q39 85 14 164t-148 81zM504 829q42 0 54.5 -30.5t4.5 -75t-28 -87.5q-15 -32 -31 -55q-14 20 -30 53q-20 44 -27.5 89t4 75.5t53.5 30.5z" />
    <glyph glyph-name="glyph 48" unicode="V" vert-adv-y="90" 
d="M481 880q-4 -2 -4 -8q0 -17 0 -14q4 -4 0 -5q4 -10 4 -15q-1 -3 -1 -6t1 -5h-3v-7h3v-60l1 -2l-1 -1q0 -23 -1 -24q-96 4 -144 7h-8l-2 -2q3 -8 3 -33q0 -6 -1 -15t-1 -12q1 -1 3 -4q30 5 125 5q12 0 17 -1q3 0 6 1.5t5 1.5t2 -5l-1 -1q-1 -24 -2 -28q-57 2 -85 2v1
q-7 1 -16 1q-7 0 -20.5 -1t-20.5 -1q-12 0 -20 1v1q-42 2 -63 5l-7 -1l-2 2l2 2q-10 -1 -13 0q-4 -2 -5 -6h1q-3 -7 -2 -10h-1v-2h1q-1 -12 -1 -18v-3q-1 0 -1 -7l1 -2q0 -3 -1.5 -9.5t-1.5 -11.5q0 -2 1 -4q50 7 60 7q3 0 5 -2q9 3 13 3q5 0 9 -2v1q9 3 73 3q30 0 56 -3v-1
q2 2 9 2q29 0 27 -4h-1v-10q0 -62 -2 -69l2 -1v-2v-11q-1 -1 -2 -3l1 -10q1 0 0 -1q2 -9 -1 -13q3 -15 3 -15.5t1 -8.5l-2 -3l2 -1q-1 -7 -2 -13h2l1 -16q0 -4 -2 -8q1 -15 1 -22q1 -2 -3 -5q2 1 2.5 0.5t0.5 -3.5q0 -9 -8 -7l2 4q-7 4 -11 4l6 1l-3 3q-2 -2 -2 -3
q-7 6 -12 8l3 1h-4q-18 16 -55 26q-33 9 -61.5 9t-70.5 -14q-47 -15 -59 -33q-4 -1 -7 -9.5t-7 -7.5l1 -2q-16 -17 -21 -28q-12 -27 -9 -51h-1v-1q0 -4 1.5 -11t1.5 -9.5t1 -5.5t1 -4v-2q1 -5 6 -8q0 -4 3.5 -9t3.5 -8q9 -5 12 -9l-1 -2q20 -16 30 -22q3 2 7.5 -1.5
t7.5 -3.5h1q37 -7 58 -7q7 3 16 3q5 0 10 -1q31 13 47 20q10 5 15 7q2 1 5 3t5 2h2l-2 2h8q0 5 5 6q2 4 5 4h2q2 3 5 4h-1q14 8 23 16q12 14 19 17q0 2 2 2t2 1v1q5 7 13 7h5q3 0 4.5 -2.5t3.5 -2.5q7 -9 25.5 -19t25.5 -16q5 1 9 -3t8 -5l-1 -3q4 1 9 -1q9 -5 9.5 -6.5
t5.5 -1.5t6 -4q0 3 2 -1l-1 -1l66 -25q16 -5 23.5 -6.5t15.5 -1.5t51 6q3 4 11 6t8 4q3 -1 6 2t5 3h3q3 2 10 9.5t13 8.5q-1 2 4 5t6 4l18 30h-1q0 2 2.5 5l2.5 3q-1 1 -2 1q3 1 3 5.5t1.5 5.5t1.5 4l3 3q-2 3 -1 8v5q1 9 1 17q2 4 2 8t-1 11q-1 6 -1 9v5l-3 -2v5q-1 3 -1 4
q0 2 1 3v4q-7 17 -11 24q-5 11 -6 11v1q-6 8 -6 7v1q-2 0 -5 4t-6 4l1 1q0 1 -4 1.5t-4 2.5q-35 30 -100 30h-14h-14l-1 -2q-47 -6 -69 -22q-6 -2 -9 -5q-8 -5 -14 -8l-1 2q-1 -4 -9 -8t-9 -7h-1q-2 0 -3.5 1l-1.5 1q-1 -1 -1 -2l4 -2l-2 -1q-3 1 -7.5 -3.5t-7.5 -5.5
q4 3 4 9q0 10 2 10h-1q2 32 4 35h-3q3 15 3 23l-1 6q0 6 1 4l-1 4l1 1q1 52 1 58l1 -1q-2 48 -2 73h5q1 1 3 1t4 -2q40 -2 61 -2q3 0 12 -2t14 -2q14 0 42 2q27 1 42 1q11 0 31 -3t28 -3v6l1 -1v2l-1 1q-1 1 -0.5 4.5t1.5 4.5h-1q0 7 1 7l-2 3q0 4 2 6l2 40l-4 1l-8 -2v-1
q-54 -6 -56 -6q-16 4 -21 1q-46 3 -69 2l1 -1q3 0 -86 -3v18q0 9 1 14h27q16 0 48 -1q-27 -1 -40 -2q59 3 90 -2q11 -2 12 -2q8 0 15 3v-1v3t-2 3q1 2 2 3l1 -1v2h-2q-2 4 -2 8t1 5v3v2h-1v6q-1 -1 -1 11q0 4 3 6h-2q-1 3 -1 5q0 12 -4 12t-16 -2.5t-18 -2.5q-36 0 -39 -1
v-2q-20 -3 -69 -3h-5q1 6 3 25q1 15 1 24l3 24l-2 -1v2q-1 5 0 5v2l1 3q-1 3 1 14q-1 2 2 17t4 19l-2 8zM696 701q0 -1 1 -1l1 1h-2zM784 661zM543 452v1v-1zM818 386v-1v1zM475 372h1l1 2zM477 374q0 1 1 2h-1v-2zM237 659q0 1 1 1l-2 -1h1zM680 378q53 0 73 -17
q17 -10 23 -19q0 -2 4.5 -5t4.5 -6q1 -3 3 -4l-2 -1l7 -14v-3l1 -3v-6h3q-2 -1 -2 -3q0 -1 2 -2.5t2 -3.5t-2 -3v-12h-1q1 -4 -8 -25q-4 -10 -9 -16q-2 -1 -15 -6q-12 -5 -16 -5q-25 0 -54 7q-2 2 -5 2h-4q-15 7 -28 11q-41 21 -61 33q-1 3 -23.5 16.5t-22.5 16.5h1h1
q-5 1 -8 4l3 1q-1 3 -6 3v-2q-1 4 -4 4q-6 0 -6 3l7 2l-2 -2h3l1 2l5 1q0 2 -2 2h-5q15 8 23 13q12 12 24 16l1 -3q2 3 3 5q1 0 2 -1q31 20 89 20zM286 361q46 0 105 -34h5l-4 -1q20 -9 32 -21q9 -2 12 -5q-27 -22 -44 -33q-24 -13 -38 -17q-5 2 -9 -5q-45 -3 -67 -6
q-24 7 -38 11q-15 10 -23 16q-1 3 -2 4h-1q-9 18 -12 29l1 1l-1 3q-1 7 0 11q5 12 10 12l-1 1q10 15 25 21q12 13 50 13zM547 323q-6 -1 -9 -1q5 -3 9 -2v3z" />
    <glyph glyph-name="glyph 49" unicode="W" vert-adv-y="90" 
d="M492 880q-8 0 -23 -7.5t-19 -15.5h-2q-1 -2 -2 -2h-1l-4 -8t-4 -4.5t-3 -5.5q0 -1 1 -2q-5 -5 -6 -8q-3 -12 -5 -18l-1 1q1 -7 0 -13h-1q-1 -3 -1 -5q0 -14 8 -26q1 -12 7 -14q0 1 5 -9q2 -2 15 -11.5t13 -12.5q0 -2 -9 -6q-11 -15 -18 -22q-6 -9 -7.5 -14.5t-2.5 -7.5
q0 -3 -1 -6q-1 -5 -1 -6h2q0 -20 20 -48h2l-1 -2q15 -9 24 -11l-1 -2l1 -5v-9v-3q-2 -8 0 -18q-1 -3 0 -9h-1q0 -5 1 -9q-11 -3 -18 -2q-45 4 -67 3v1l-22 1v1h-5q-1 0 -3 -1q2 -12 1 -36h-1l1 -3h-1l1 -3q-1 -2 -1 -8q0 -11 0 -10h3q8 0 20.5 2.5t18 4t17.5 1.5q8 0 26 2
q17 2 25 2q3 0 4 -1v-1q1 -9 1 -14q-1 -5 -1 -8.5v-4.5v-6q-8 -8 -16 -8q-26 -4 -48 -25l-5 -2l1 -1q-2 -1 -5 -4.5t-5 -2.5l1 -1l-18 -20q-2 -7 -5 -8q2 -3 -0.5 -5t-2.5 -3v-3v1q0 -3 -2.5 -7.5t-2.5 -6.5v-1q-2 -7 -3 -8v-1v-10l-2 -3h1q1 -12 1 -18q-4 0 -11 -1.5
t-11 -1.5q-89 0 -134 2q-1 -11 -2 -10q1 -1 1 -3q1 -1 1 -2t-1 -2v-8q-1 -6 -1 -9v-3q1 -15 -2 -21v-2l3 -2q28 4 41 8q8 0 12 1l33 3h8v1h-3q3 1 7 1t7 -1q-7 -1 -11 -1h13l-2 2q44 1 47 3l4 -1q1 -4 1 -6t-2 -6l8 -22h-1q8 -10 10 -17q-1 -2 0.5 -2.5t1.5 -1.5v-1l20 -21
l-2 -1q2 0 9 -4q6 -5 10 -6h4q5 -6 19 -10l-3 -1q24 -4 36 -7t19 -2q10 1 11 1l37 8l-1 2q11 3 16 5l24 15q3 -1 4.5 2.5l1.5 3.5q11 9 11.5 11t4 3t3.5 4l2 -1h-1q1 5 5 7q11 31 15 31v-1q40 -3 61 -3q5 2 9 0v0v0h1h1h1h1h1h1h1h1h1h2h3q55 -2 83 -2q1 3 1 6v4l-2 5v2
q2 3 0 6q-1 6 -1 7t1 2v19q-1 1 -1 3v9h-17q-6 0 -18.5 -1t-18.5 -1q-61 0 -80 -2q-15 1 -23 -1v1v3l1 1h-1v3q0 2 2 2h1v1h-2v3q-1 1 -1 4q0 2 2 3q0 9 -1 15q-1 2 -1 6h1l-1 3q1 2 -1 5.5t-2 5.5t1 3q-7 13 -9 20h-2l-1 3q-5 6 -5 10l-5 9h1l-4 2l1 2q-7 3 -10 7v1
q-16 12 -33 18q-5 1 -36 8l-10 1l1 2q0 8 1 10l-2 1q0 31 -1 33q8 0 35 -2q21 -1 33 -1q6 0 16 -2.5t16 -2.5l4 1v4l1 1v1l-1 7l2 5l-2 4q2 6 2 9q-2 5 -1 8l1 2v2q0 1 -1 3.5t-3 2.5q-8 0 -23.5 -1t-22.5 -1q-49 0 -54 1l3 9q-2 9 -2 14l1 -1l-1 13q0 4 2 4h1l-2 1v2
q0 6 1 7q25 9 38 15q1 2 4 3v2q13 11 18 21q-4 2 1 5l1 7l1 -1v3q2 19 2 28l-1 -1q-1 3 -1 4v1q-5 7 -6 11q-6 11 -9 16l2 1h-3q0 3 -5 6.5l-5 3.5q-8 8 -14 10v2q-7 -2 -13 4q3 2 6 2q11 15 19 22q12 15 15 24q0 5 4 14v-1q0 6 2 10h-1q1 8 0 12v-1v5l-13 29l1 1
q-20 19 -34 26q-23 7 -41 7zM599 426l1 -1zM207 313v1v-1zM503 840q28 0 41 -37h-1q-1 -10 1 -16v-3q2 0 0 -2q-8 -11 -10 -17v-2l-2 1q-5 -11 -24 -12l3 -1q-4 -2 -11 -2q-5 0 -9 1l1 1q-2 3 -12 7t-11 10q-6 3 -7.5 12t-2.5 17h-1v7v5q2 1 2 4v2q13 25 43 25zM501 699h2
q9 0 28 -9l-2 -2q14 -12 15 -31h1q-2 -6 -1 -9h-1q-3 -6 -6 -9l-19 -19q-2 3 -4 -1h-10q-12 0 -16 6q-14 10 -17 18q3 21 4 32h1v2h3l-2 1q2 7 10 12zM470 418q-4 0 15 0q7 0 12 -1t13 -4l11 -3q6 -4 19 -9q6 -6 9 -8l1 1q9 -12 14 -16q2 -1 3 -3.5t3 -2.5h1q0 -3 1 -4
q5 -12 9 -17q-1 -2 0 -6q2 -4 3 -5q5 -7 5 -23q0 -5 1 -12.5t1 -11.5q-1 -3 -2 -5l2 -2h-1l-1 -7q-2 -6 -2 -10q-4 -8 -8 -13q-2 -1 -2 -3l1 -1l-2 -2v-2q-20 -17 -32 -21l2 -2q-6 0 -17 -2.5t-17 -2.5q-16 0 -27 3q-11 1 -17 2l4 1v1q-5 -1 -28 12q-6 7 -9 10l-3 1
q-5 9 -8 14.5t-8 8.5l3 1l-4 1l2 1l-4 2l2 1q-4 4 -5 8t-2 4v3l1 -1l1 1q-3 0 -4.5 5l-1.5 5v2q-5 9 -5 27q0 8 1 14l2 3q-1 2 0 4h1q-2 2 2 5q3 10 3 11q5 6 4 10v1q9 7 14 10q0 1 2 3t7 7.5t9 5.5h2q13 8 28 9zM340 273h8h-8z" />
    <glyph glyph-name="glyph 50" unicode="X" vert-adv-y="90" 
d="M500 836q-132 0 -222.5 -90t-90.5 -221.5t90.5 -222t222.5 -90.5t222.5 90.5t90.5 221.5t-90.5 221.5t-222.5 90.5zM500 764q92 0 159.5 -60t78.5 -144h-476q11 84 78.5 144t159.5 60zM262 488h476q-11 -84 -78.5 -144t-159.5 -60q-93 0 -160.5 60t-77.5 144z" />
    <glyph glyph-name="glyph 51" unicode="Y" vert-adv-y="90" 
d="M500 924l-273 -474h231v-80h-163v-83h163v-163h84v163h163v83h-163v80h231zM500 777l141 -244h-282z" />
    <glyph glyph-name="glyph 52" unicode="Z" vert-adv-y="90" 
d="M316 924q0 -101 73 -150q-73 -48 -73 -141q0 -67 41.5 -117t100.5 -61v-53h-76v-82h76v-79l-76 30v-33l118 -114l119 114v33l-77 -30v79h77v82h-77v53q58 11 100 61t42 117q0 93 -73 141q73 49 73 150h-84q-1 -51 -29.5 -79.5t-70.5 -28.5t-70.5 28.5t-28.5 79.5h-85z
M500 733q42 0 70.5 -29t29.5 -71q-1 -42 -29.5 -71t-70.5 -29t-70.5 28.5t-28.5 71.5t28.5 71.5t70.5 28.5z" />
    <glyph glyph-name="glyph 1" unicode="a" vert-adv-y="90" 
d="M494 899q-92 1 -124 -89t17 -172q48 -76 50 -78q0 -1 1 -2l-146 24l3 -126q46 9 91 15q43 5 68 5q0 -70 -6.5 -154t-27.5 -174q44 3 92 2q48 -2 75 -2q-18 48 -25 156.5t-10 171.5q28 0 65.5 -11t90.5 -15v129q-47 -5 -82 -12t-58 -10q24 25 32.5 41t27.5 56
q39 85 14 164t-148 81zM504 829q42 0 54.5 -30.5t4.5 -75t-28 -87.5q-15 -32 -31 -55q-14 20 -30 53q-20 44 -27.5 89t4 75.5t53.5 30.5z" />
  </font>
</defs>
</svg>
