<?xml version="1.0" standalone="no"?>
<!DOCTYPE svg PUBLIC "-//W3C//DTD SVG 1.1//EN" "http://www.w3.org/Graphics/SVG/1.1/DTD/svg11.dtd" >
<svg>
<metadata>
Created by FontForge 20110222 at Thu Feb 13 12:29:04 2014
 By Orthosie Webhosting
</metadata>
<defs>
<font id="AkhoWillRegular" horiz-adv-x="1024" vert-adv-y="1024" >
  <font-face 
    font-family="AkhoWillRegular"
    font-weight="400"
    font-stretch="normal"
    units-per-em="1024"
    panose-1="2 0 5 9 0 0 0 0 0 0"
    ascent="819"
    descent="-205"
    cap-height="858"
    bbox="0 0 1000 1024"
    underline-thickness="0"
    underline-position="0"
    unicode-range="U+0041-005A"
  />
<missing-glyph vert-adv-y="90" 
d="M0 0h1000v1024h-1000v-1024z" />
    <glyph glyph-name=".notdef" vert-adv-y="90" 
d="M0 0h1000v1024h-1000v-1024z" />
    <glyph glyph-name=".notdef" vert-adv-y="90" 
d="M0 0h1000v1024h-1000v-1024z" />
    <glyph glyph-name=".null" horiz-adv-x="0" vert-adv-y="0" 
 />
    <glyph glyph-name="nonmarkingreturn" 
 />
    <glyph glyph-name="glyph 27" unicode="A" vert-adv-y="90" 
d="M735 857q-24 0 -43 -14q-30 -24 -34 -50q-1 -10 -1 -17q0 -41 29 -51l-90 -188l-155 142q-66 54 -93 74q-99 80 -171 80q-54 0 -95 -54q-25 -33 -25 -64q0 -77 130 -152q63 -22 86 -28q41 -10 84 -9q-3 -43 44 -73q17 -10 32 -10q29 0 48 37q9 16 9 29q0 29 -38 45
q-50 20 -115 19q-83 -1 -162 51q-65 43 -65 91q0 20 13 40q20 32 50 32q42 0 109 -47q54 -38 129 -106l124 -113l173 -164l94 -91q45 -45 81 -75q34 1 51 5q9 8 9 16q0 7 -5 15q-9 12 -23 25l-26 21q-17 14 -18 18q-101 81 -236 211l95 210q0 -2 8 -2q14 0 28 7q43 22 43 73
q0 6 -1 13q-4 34 -44 49q-15 5 -29 5zM737 810q12 0 21 -13q6 -8 6 -14q0 -11 -16 -22q-11 -8 -20 -8q-11 0 -21 14q-7 10 -7 17q0 11 16 20q12 6 21 6zM398 527q2 -1 28 -4q14 -1 14 -12q0 -4 -2 -11q-5 -17 -10 -17q-4 0 -11 8q-20 23 -19 36z" />
    <glyph glyph-name="glyph 28" unicode="B" vert-adv-y="90" 
d="M440 857q-55 0 -72 -34q-7 -15 -7 -29q0 -19 14 -37q20 -26 54 -26q30 0 52 12q29 16 29 39l257 -2l-267 -264q-7 -5 -2 -16q13 -18 59 -61l61 -55l119 -113l-225 -1q-125 -1 -227 3q-6 23 -36 40q-15 8 -32 8q-18 0 -38 -8q-35 -16 -35 -47q0 -7 1 -11q10 -65 65 -64
q22 1 31 4q13 4 24 13q15 11 16 18l572 -6q0 31 -39 54t-47 38l-204 202l293 311q-186 2 -349 3q-5 28 -64 29h-3zM436 822q7 0 16 -5q14 -7 14 -15q0 -7 -7 -16q-11 -14 -24 -14q-7 0 -15 4q-14 6 -14 15q0 6 6 15q11 16 24 16zM218 285q19 0 25 -22q2 -6 2 -12
q0 -19 -21 -27q-8 -3 -14 -3q-16 0 -25 23q-4 9 -4 16q0 17 23 22q8 3 14 3zM739 268h1h-1z" />
    <glyph glyph-name="glyph 29" unicode="C" vert-adv-y="90" 
d="M194 858q-15 0 -32 -10q-35 -19 -35 -53q0 -9 4 -22q14 -49 60 -46l260 -525q6 -12 19 -11q12 0 19 10l318 533q1 -1 8 -1q13 0 25 8q33 21 33 57q0 7 -1 13q-4 22 -31 36q-19 10 -35 10q-25 0 -41 -24q-15 -20 -15 -43q0 -18 9 -32l-282 -458l-92 175l67 104
q27 41 36 54q42 61 42 107q0 8 -1 15q-4 36 -46 60q-28 17 -53 17q-22 0 -40 -12q-40 -26 -58 -91q-1 -3 -1 -7q0 -15 18 -26q9 -5 17 -5q13 0 21 13q19 34 34 56q8 11 17 11q7 0 16 -6q13 -8 13 -25q0 -6 -2 -12q-7 -32 -26 -62l-85 -128q-72 152 -110 213q15 15 15 35
q0 21 -16 43q-21 29 -49 29zM811 809q3 0 8 -4q8 -5 8 -10q0 -4 -2 -7q-4 -7 -9 -7t-10 3q-8 4 -8 10q0 3 2 7q6 8 11 8zM196 807q8 0 15 -11q4 -7 4 -12q0 -7 -10 -12q-6 -3 -10 -3q-9 0 -16 11q-3 6 -3 11q0 7 9 13q6 3 11 3z" />
    <glyph glyph-name="glyph 30" unicode="D" vert-adv-y="90" 
d="M654 859q-14 0 -23 -5q-22 -12 -29 -25l-210 -5q-15 29 -43 32t-51 -12q-26 -18 -24 -46q3 -29 15.5 -42t41.5 -19q5 -1 9 -1q30 0 51 36l200 2q0 -14 26 -30l8 -542q12 -12 35 -12q21 -1 37 6l-3 545q32 9 33 53q1 43 -37 58q-20 7 -36 7zM338 822q7 0 15.5 -9t8.5 -17
q0 -9 -9 -18.5t-17 -9.5q-7 0 -13.5 7.5t-6.5 15.5q0 10 8 20q7 11 14 11zM663 822q5 0 11 -2q14 -4 14 -14q0 -7 -4 -16q-10 -18 -22 -18q-5 0 -11 3q-13 7 -13 18q0 6 3 13q8 16 22 16z" />
    <glyph glyph-name="glyph 31" unicode="E" vert-adv-y="90" 
d="M233 849q-15 -6 -21 -12t-11 -13.5t-10 -16t-8.5 -17t-6.5 -19.5q-4 -11 -8 -20l-6 -16q-3 -7 -10 -24q5 -8 9 -11l13 -10q13 3 16 7l7 6q2 2 5 5.5t6 5.5l232 6q9 -8 15.5 -22t9 -30t2.5 -33t-2.5 -35.5t-5.5 -37.5l-6 -40q-3 -19 -4.5 -39t1.5 -39q0 -7 -2.5 -13.5
t-6.5 -13.5t-9 -13.5t-10 -12.5l-58 -30q-10 -9 -13 -21t-4 -25v-25q1 -11 -1 -23q2 -16 8 -25t15 -16t21 -13t26 -14h3h4h4h1h91q13 5 25 12.5t23 18t19.5 23.5t12.5 28v6v7v9v10l-30 61q-2 6 -8.5 9t-12.5 5l-13 4q-7 2 -13 6q-4 2 -7.5 6.5t-6.5 10.5t-6 15t-6 16l15 235
q1 9 3.5 14.5t7 10t11 8t15.5 6.5h235l65 -9l-15 107q-6 12 -15.5 14t-16.5 -2t-14 -10l-6 -6l-514 10q-2 1 -6.5 3t-8.5 4.5t-7.5 5.5t-11.5 12zM467 368q27 0 46.5 -21t19.5 -51t-19.5 -51t-46.5 -21t-46.5 21t-19.5 51t19.5 51t46.5 21z" />
    <glyph glyph-name="glyph 32" unicode="F" vert-adv-y="90" 
d="M338 859q-15 0 -30 -8q-38 -21 -41 -43q-1 -11 -1 -21q0 -28 13.5 -34.5t26.5 -13.5q-1 -78 -8 -171q-3 -34 -3 -65q0 -167 73 -251q51 -58 132 -60q129 -3 174 133q18 84 20 212q3 205 3 208q13 4 23 18q14 17 14 33q0 6 -2 12q-15 39 -69 44q-23 2 -38 -7
q-27 -19 -28 -39q-2 -42 28 -55q17 -7 19 -8l-1 -174q-1 -101 -13 -175q-8 -56 -44 -92q-38 -40 -91 -39q-38 0 -56.5 9t-44.5 39q-22 24 -35 113q-10 69 -9 124q3 99 4 193l8 3q26 8 32 57q2 23 -16 40.5t-40 17.5zM339 816q9 0 9 -20q-1 -25 -19 -22q-20 3 -18 18
q2 17 22 23q4 1 6 1zM663 813q7 0 16 -6q15 -9 15 -19q0 -4 -3 -8q-5 -8 -13.5 -8t-20.5 5q-16 7 -16 15q0 5 4 10q9 11 18 11z" />
    <glyph glyph-name="glyph 33" unicode="G" vert-adv-y="90" 
d="M687 857q-27 0 -49 -26q-15 -17 -15 -36q0 -14 8 -28q19 -33 38 -35l-2 -124q-1 -95 -1 -123l-140 -2q-90 -1 -141 -2q-3 20 -47 39q-14 6 -28 6q-29 0 -52 -28q-18 -21 -18 -41q0 -19 15 -37q31 -35 62 -34q24 0 45 13q26 17 24 35q68 2 140 1h140q2 -34 3.5 -113.5
t3.5 -123.5q13 -7 23 -7q14 0 28 11l-2 264q-2 179 -2 267q22 1 36 38q4 13 4 25q0 21 -14 36q-26 25 -59 25zM697 823q11 0 19 -12q6 -9 6 -16q0 -12 -13 -21q-10 -7 -19 -7q-11 0 -22 13q-7 9 -7 16q0 10 15 20q12 7 21 7zM316 483q16 0 28 -19q5 -9 5 -16q0 -13 -21 -19
q-11 -4 -19 -4q-18 0 -26 17q-4 8 -4 15q0 13 20 22q9 4 17 4z" />
    <glyph glyph-name="glyph 34" unicode="H" vert-adv-y="90" 
d="M218 833q-10 0 -16 -6t-9 -13t-5 -15t-5 -16v-13t6 -21l355 -20q5 -2 8 -3t4 -2.5t0.5 -4t-3.5 -8.5l-183 -180q0 -12 3.5 -17.5t9 -9.5t12.5 -6.5t15 -6.5l167 -15q7 2 12 3t10 3l11 3q6 2 13 5h2q2 0 4 -1t3 -2l-371 -222q0 -5 -1 -7q-1 -3 -1 -7l-2 -7q-1 -3 -1 -9
l1 -2q2 -2 2.5 -3.5t2.5 -4.5l4 -4q1 -2 4.5 -4t8.5 -0.5t7 5.5t2 5q27 16 62 35l65 34l64 33l65 35q31 17 63 37q33 20 63 43t60.5 50t61.5 60l31 63v61l-5 10q-2 5 -6 9.5t-10 9.5t-16 8q-16 0 -28.5 -5t-24 -12t-20.5 -15t-21 -17q-2 -8 -2 -13t3 -9t8 -5l8 -2t8 -1h8h7
q3 0 6 -1l2.5 -4t5.5 -14q0 -4 -0.5 -10t-2.5 -11.5t-4.5 -10t-3.5 -5.5l-143 -30q-3 2 -9 3l-10 4l-11 3l-15 5h-11h-10h-10h-12q-3 1 -7 3t-4.5 3t-0.5 4.5t2 8.5l210 219zM235 610q-12 0 -21 -5t-15 -12.5t-10 -13.5l-12 -20v-7v-8v-8v-13q6 -2 8 -4l5 -6q3 -4 8 -8.5
t15 -8.5q5 0 11 1q5 0 12 4q3 0 7 2l7 6q4 3 8 7l10 10v62q0 7 -9.5 12.5t-23.5 9.5zM227 575q9 0 15.5 -7.5t6.5 -17.5t-6.5 -17t-15.5 -7t-15.5 7t-6.5 17t6.5 17.5t15.5 7.5zM696 417q-10 0 -19 -4.5t-18 -13.5q-4 -5 -8.5 -13t-8.5 -21q0 -4 0.5 -9.5t1.5 -10.5
t3.5 -11.5t8.5 -15.5q6 0 7 -1h4q2 -1 4 -1.5t8 -3.5h7q4 0 8.5 0.5t10 2t9.5 4.5q7 4 12 11t8.5 14t6.5 14l7 20q0 10 -4.5 19t-17.5 15h-5l-7 2q-4 1 -9 2t-9 1zM697.5 387q9.5 0 16 -7t6.5 -17.5t-6.5 -18t-16 -7.5t-16.5 7.5t-7 18t7 17.5t16.5 7z" />
    <glyph glyph-name="glyph 35" unicode="I" vert-adv-y="90" 
d="M488 858q-26 0 -46 -18q-37 -34 -37 -63q0 -25 23 -41l-242 -400h-3q-22 0 -45 -14q-30 -19 -32 -57q-1 -32 18 -52t52 -22q22 -1 45 11q28 14 31 30l506 -2q12 -24 26 -32q13 -7 44 -7q41 0 56 21q11 16 10 57q0 37 -32 50q-21 9 -36 9q-5 0 -5 -1l-275 412q8 4 15 23
q5 14 5 25q0 17 -10 34q-16 26 -47 34q-10 3 -21 3zM495 818q9 0 18 -10t9 -21q0 -12 -12 -25t-23 -13q-10 0 -20.5 10t-10.5 20q0 13 13.5 26t25.5 13zM462 716q6 -7 24 -6t22 5l272 -402q-29 -24 -27 -40l-499 5q-1 23 -26 35zM182 298q6 0 13 -4q16 -8 17 -27
q-1 -8 -3 -18q-6 -21 -20 -21q-9 0 -21 6q-21 11 -21 25q0 9 7 19q13 20 28 20zM818 289q6 0 13 -1q28 -6 28 -23q0 -6 -2 -12q-9 -25 -29 -25q-31 0 -32 36q0 25 22 25z" />
    <glyph glyph-name="glyph 36" unicode="J" vert-adv-y="90" 
d="M282 857q-32 0 -56 -20q-28 -22 -28 -53t26 -50q23 -16 54 -16q59 0 73 43l397 1l-8 -555q2 -16 14.5 -16t26.5 5q21 8 21 21v588h-450q-8 31 -34 44q-17 8 -36 8zM286 813q20 0 20 -25q0 -14 -6.5 -21t-19.5 -6q-27 1 -27 24q1 24 28 27q2 1 5 1z" />
    <glyph glyph-name="glyph 37" unicode="K" vert-adv-y="90" 
d="M311 858q-11 0 -21 -2q-60 -14 -67 -73q-1 -8 -1 -14q0 -47 41 -59q23 -7 41 -7q16 0 28 5q44 18 48 49q151 0 230 -35q120 -54 121 -198q2 -149 -121 -203q-86 -39 -254 -36q-16 60 -72 56q-54 -4 -72 -42q-8 -16 -8 -31q0 -21 15 -41q24 -34 56 -35q68 -2 76 37
q197 -1 298 46q147 68 147 249q0 174 -124 238q-58 30 -148 42q-48 6 -148 10q-21 44 -65 44zM302 812q3 0 8 -1q29 -3 29 -27q0 -4 -1 -10q-5 -30 -28 -30q-3 0 -7 1q-30 4 -28 37q1 30 27 30zM283 296q3 0 7 -1q26 -4 26 -29q0 -3 -1 -6q-2 -26 -26 -26q-5 0 -10 1
q-27 4 -27 23q0 5 1 11q7 27 30 27z" />
    <glyph glyph-name="glyph 38" unicode="L" vert-adv-y="90" 
d="M351 857q-11 0 -22 -3q-30 -8 -47.5 -30.5t-17.5 -52.5q0 -36 28 -49q19 -10 42 -10q6 0 13 1q27 3 48 17q27 17 28 42l228 -12l-141 -118q-18 -4 -18 -29q16 0 31 3.5t22 3.5q32 5 53 5q46 0 52 -20q4 -11 4 -29q0 -32 -13 -81q-65 -127 -178 -168q-5 -12 -5 -19
q0 -17 20 -17q21 -1 37 3q47 1 74 -4q15 -3 15 -17q0 -5 -2 -11q-5 -19 -24 -27l-39 -7q-26 -5 -26 -27l19 -10q16 1 25 2l33 7q68 12 68 81q-5 36 -39 49q-18 6 -54 7q58 23 112 123q46 85 46 137q0 69 -60 72q-8 1 -20 1q-35 0 -51 -6q9 3 38 26q106 87 106 104
q0 12 -18 12l-299 13q-12 23 -39 33q-14 5 -29 5zM344 810q7 0 18 -5q17 -8 17 -19q0 -6 -6 -15q-12 -15 -24 -15q-7 0 -14 4q-15 7 -15 20q0 6 4 15q7 15 20 15z" />
    <glyph glyph-name="glyph 39" unicode="M" vert-adv-y="90" 
d="M686 857l-194 -266l-95 89q11 12 13 38q3 35 -34 59q-32 20 -67 18q-85 -5 -88 -92q-1 -39 36 -65q26 -18 50 -18q9 0 18 2q28 10 44 27l91 -101l-239 -338q6 -16 35 -15q22 2 48 2q12 22 16 34l356 501l-2 -376q-24 -16 -45 -27q-25 -22 -25 -60q0 -7 1 -15
q6 -50 60 -61q10 -2 21 -2q33 0 62 25q32 28 32 60q0 6 -2 13q-11 32 -24 45.5t-40 21.5l-2 410q3 19 5 42t-10 48q-9 1 -21 1zM309 754q9 0 21 -3q23 -5 29 -22q3 -9 3 -17q0 -30 -27 -46q-9 -4 -18 -4q-10 0 -21 5q-34 15 -34 39q0 8 4 18q12 30 43 30zM679 318
q12 0 28 -9q20 -11 21 -25q4 -34 -30 -49q-6 -3 -12 -3t-12 4q-28 19 -28 41q0 10 5 21q11 20 28 20z" />
    <glyph glyph-name="glyph 40" unicode="N" vert-adv-y="90" 
d="M470 858q-17 0 -32 -8q-28 -15 -36 -51q-2 -10 -2 -20q0 -24 14 -44q21 -28 52 -29l212 -427q-1 -7 -2 -8l-313 9q-8 30 -18 39q-14 13 -48 13q-31 0 -47 -22q-13 -19 -12 -49q0 -25 12 -45q14 -25 40 -26q36 0 45 7l21 24l388 -10q19 3 19 20q0 9 -5 20q-11 25 -16 34
l-224 436q37 18 37 50q0 8 -3 17q-9 29 -18 40q-12 15 -38 25q-13 5 -26 5zM473 819q11 0 20 -11q15 -16 15 -37q0 -10 -5 -19q-7 -10 -29 -8q-29 2 -35 36v9q0 25 30 29q2 0 4 1zM298 290q3 0 9 -1q19 -5 19 -24q0 -6 -2 -14q-6 -24 -18 -24q-4 0 -11 3q-19 9 -19 28
q0 5 2 11q5 21 20 21z" />
    <glyph glyph-name="glyph 41" unicode="O" vert-adv-y="90" 
d="M495 796q-34 0 -54 -17q-22 -19 -21 -53q1 -24 14 -46q15 -25 33 -29l-7 -379q6 -15 16 -20q42 3 56 18q0 64 -6 190.5t-6 185.5q34 8 49 33q12 18 12 38q0 6 -1 13q-6 30 -30.5 48t-54.5 18zM494 746h1q9 0 20 -10t11 -19q0 -8 -7.5 -15.5t-14.5 -7.5q-10 0 -22 10
t-12 20q0 8 9 15q8 7 15 7z" />
    <glyph glyph-name="glyph 42" unicode="P" vert-adv-y="90" 
d="M478 860q-30 0 -50 -8q-41 -16 -81 -57q-17 -16 -33 -51q-27 -56 -27 -114q0 -19 4 -40q7 -41 38 -71q56 -52 105 -52q5 0 13 1q48 7 79 37q24 23 43 72q5 14 5 27q0 31 -29 60q-26 25 -53 25q-20 0 -40 -14q-46 -33 -46 -94q16 -27 30 -27q9 0 18.5 7t9.5 16q0 5 -3 10
q-8 17 -8 25q0 11 21 14q8 3 15 -9q5 -7 5 -18q0 -5 -1 -11q-20 -36 -44 -42q-8 -2 -15 -2q-15 0 -28 9q-23 15 -33 45q-10 28 -4 58q9 50 41 83q34 35 81 34q83 -2 131 -120q6 -23 6 -59q0 -25 -6 -57q-12 -74 -49 -128q-32 -49 -63 -71q-29 -22 -81 -42q-20 21 -38 29
q-18 7 -51 -4q-19 -6 -25 -28q-3 -11 -3 -24q0 -7 2 -17q9 -57 49 -60q62 -4 75 50l47 18q25 9 56 29q57 37 110 125q62 102 58 191q-1 28 -9 66q-18 85 -73 141q-47 48 -149 48zM375 289q18 0 20 -22q1 -5 1 -12q0 -16 -8 -19q-5 -1 -10 -1q-18 0 -28 22q-4 8 -4 14
q0 12 18 16q7 2 11 2z" />
    <glyph glyph-name="glyph 43" unicode="Q" vert-adv-y="90" 
d="M233 932q-45 0 -77.5 -35.5t-32.5 -86t32.5 -86t77.5 -35.5q30 0 55.5 16.5t40.5 44.5l215 -9l56 -24l72 -62l29 -56v-9v-11v-11v-13q0 -8 -2 -14.5t-6.5 -13.5t-9.5 -13l-10 -13l-71 -47l-6 0.5t-9 1.5q0 1 -1 5.5t-1 9.5t1 11t2 10q1 2 5 6q5 3 9 6l9 5q4 3 11 4
q1 0 3.5 1.5t5.5 4.5t6.5 8t5.5 20l-160 16l-10 -6q-4 -2 -9 -6.5t-6.5 -11t0.5 -18.5q5 -4 9 -8l6 -6l8 -7l7 -8l2 -9q1 -4 1 -8.5t-1 -9.5l-2 -14q0 1 -5 -2t-13 -5q-4 0 -10 2.5t-12 8.5l-54 44q0 1 1 5.5t2.5 9.5t4 11.5t4.5 17.5q-8 7 -11 10t-8 10q-12 0 -19 -1.5
t-13 -3.5t-13 -5t-13 -9l-60 -151v-12v-10v-11v-17q6 -7 11 -9.5t11 -2.5t10.5 3l7.5 5t6 5t7 5.5t7.5 3.5t5.5 1l133 -30q2 -1 4 -5.5t3.5 -11.5t1.5 -15v-16l-28 -51q-3 -2 -5.5 -2h-8t-12.5 -1t-14 -6q-7 -1 -10 -7t-3.5 -11.5t0 -12t5.5 -17.5h9q1 0 3 -0.5t4 -1.5l8 -3
h151q3 0 6.5 1t7.5 3t7.5 5t6.5 6t5.5 7t3 9t-0.5 10t-5 10q-5 7 -12 8t-13 1h-9t-4 1v107q1 6 3.5 10.5t7.5 8.5t12 7.5t16 6.5q9 4 17 9.5t15 12.5l61 46l75 228l-76 109q-15 14 -32 23.5t-34.5 15.5t-37.5 10t-39 6t-39 4l-40 2l-40 4t-39 5l-60 5q-10 38 -39 63t-67 25z
M240 870q24 0 40.5 -18.5t16.5 -44.5t-16.5 -44.5t-40.5 -18.5t-40.5 18.5t-16.5 44.5t16.5 44.5t40.5 18.5z" />
    <glyph glyph-name="glyph 44" unicode="R" vert-adv-y="90" 
d="M325 857q-25 0 -45 -19q-27 -25 -28 -44q-3 -77 58 -91q42 -9 63 1q17 9 23 17l9 14q85 0 133 -41q90 -75 97 -217q3 -64 -1 -103q-1 -21 -9 -80q-7 -50 -9 -84q17 -10 55 -17q10 -2 20 -2q25 0 39 17q13 16 13 40v9q-3 23 3 99q5 59 -10 131q-14 70 -41 126
q-87 182 -286 194l-8 4l-5 8q-17 26 -52 36q-9 2 -19 2zM326 814q7 0 17 -3q26 -9 26 -28q0 -7 -4 -16q-9 -25 -28 -25q-7 0 -15 2q-24 8 -24 30q0 6 2 14q6 26 26 26z" />
    <glyph glyph-name="glyph 45" unicode="S" vert-adv-y="90" 
d="M710 857q-33 -12 -37 -14q-18 -10 -25 -27q-19 -1 -65 0l-187 3q-56 1 -72 1q-3 2 -5 8q-4 12 -10 16q-9 8 -35 11q-6 1 -12 1q-29 0 -46 -20q-20 -23 -20 -47q0 -28 7 -43q10 -19 31 -25v-68q0 -49 3 -113q8 -154 31 -212q28 -67 105 -104q66 -33 146 -33q115 12 170 67
q50 50 75 165q10 49 10 95q0 34 -6 67q-9 47 -9 92q0 26 3 46q23 6 33 34q9 24 3 52q-10 48 -88 48zM713 818h3q34 -1 30 -31q-3 -32 -26 -32q-24 0 -30 33q-1 5 -1 10q0 19 24 20zM255 812h2q22 -1 27 -30q1 -4 1 -8q0 -17 -22 -15q-28 2 -27 29q1 25 19 24zM331 763
q99 0 159 -2l157 -3q4 -16 14 -25t27 -14q1 -25 4 -107q3 -70 3 -110q0 -92 -47 -164q-25 -38 -68 -51q-34 -10 -70 -10q-50 0 -99 19q-44 17 -63 43q-32 46 -34 66l-10 105q-5 60 -5 105q2 84 2 111q9 2 18 17q11 17 12 20z" />
    <glyph glyph-name="glyph 46" unicode="T" vert-adv-y="90" 
d="M230 857q-38 0 -38 -37v-249h-133v-125h66v61h67v-197q0 -37 38 -37h584q-9 -6 -9 -22t10 -31q21 -29 57 -29q69 0 69 68q0 29 -23 46q-26 21 -56 21h-605v181h318l-2 166q-15 1 -22 1q-30 0 -50 -10v-8v-7q11 -11 11 -42q-1 -31 -9 -36h-247q1 1 1 2q1 21 1 101
q0 40 -1 119h508q-1 -3 -1 -26q-1 -34 -1 -37q-23 -38 -21 -75q19 -6 43 -10q9 -2 17 -2q14 0 25 5q16 15 16 24q0 7 -4 9v139q0 37 -38 37h-571zM837 273h25q12 0 22 -7q12 -7 8 -16q-3 -11 -15 -17t-22 -1q-18 7 -18 30v11z" />
    <glyph glyph-name="glyph 48" unicode="V" vert-adv-y="90" 
d="M498 825h-2q-5 -1 -9 -2.5t-8 -4.5l-6 -4q-4 -3 -7 -6l-6 -4t-7.5 -3.5t-9.5 -2.5q-6 -4 -12 -6.5t-13 -9.5l-39 -33v-8q0 -3 1 -6t3 -6t7 -5q7 0 12 0.5t9.5 2t9.5 4t6 4.5q2 0 5.5 -0.5t5.5 -1t3 -1.5q14 -12 26 -25q13 -13 25 -26.5t22 -26.5l17 -23l-92 -85l103 -108
l-145 -168l19 -45q6 0 8.5 -0.5t4.5 1.5q10 -2 11 -2.5t2 0.5q2 0 3 1h2q5 2 8.5 5t5 7t0.5 8q0 5 -1 8q0 4 -1 7q0 4 -0.5 7t0 5.5t1.5 4.5l161 171l-92 100q0 4 3.5 9.5t8 10.5t10.5 9l12 9l14 10q8 5 14.5 11.5t11.5 14t8 18.5q0 8 -3.5 13.5t-8.5 11.5l-102 115l15 42
q-9 3 -14 3z" />
    <glyph glyph-name="glyph 49" unicode="W" vert-adv-y="90" 
d="M215 646q-29 0 -53 -19q-27 -21 -28 -49q0 -64 60 -90q13 -5 25 -5q18 0 33 9q80 -56 195 -78q60 -12 114 -12q51 0 99 10q87 19 172 88q20 16 25 25q9 13 8 41q-33 2 -60 -20q-25 -20 -39 -33q-48 -32 -110 -42q-33 -5 -68 -5q-30 0 -60 4q-135 17 -233 82q3 45 -37 78
q-19 16 -43 16zM213 599q12 0 23 -15q8 -10 8 -20q0 -12 -14 -22q-10 -8 -18 -8q-12 0 -22 16q-9 11 -9 21q0 12 14 21q10 7 18 7z" />
    <glyph glyph-name="glyph 50" unicode="X" vert-adv-y="90" 
d="M510 914q-10 0 -20 -2q-47 -9 -54 -43q-6 -34 6 -59q13 -30 47 -31l-1 -206h-97v-121h97v-195q-37 -12 -53 -35q-8 -12 -8 -24q0 -13 8 -28q17 -28 50 -32q34 -4 61 15q23 16 23 43q0 6 -1 11q-5 34 -56 50v195h97v121h-97v201q40 7 64 43q10 15 10 31q0 20 -18 39
q-23 27 -58 27zM506 888q40 -1 42 -42q0 -21 -11 -31t-34 -9q-45 0 -41 41t44 41zM415 549h73v-73h-73v73zM512 549h73v-73h-73v73zM489 235q11 0 24 -6q29 -14 29 -35q0 -8 -5 -17q-11 -23 -36 -23q-10 0 -21 3q-29 9 -29 31q0 10 5 21q12 26 33 26z" />
    <glyph glyph-name="glyph 51" unicode="Y" vert-adv-y="90" 
d="M217 857v-166h66v102h108q-19 -44 -19 -60q0 -11 4 -22q4 -10 5 -20h85q1 23 0 44v37v21h94q-17 -12 -18 -49q-1 -22 7 -53h67q14 19 14 42q0 7 -1 13q-3 30 -10 47h85q13 0 13 -14v-490q0 -30 -8 -41q-13 -17 -12 -46q22 -4 36 -11h37q7 17 13 25v641h-566z" />
    <glyph glyph-name="glyph 52" unicode="Z" vert-adv-y="90" 
d="M323 858q-22 0 -38 -10q-35 -22 -35 -56q0 -18 9 -38q8 -17 33 -25q19 -6 40 -5q58 3 60 41h84l8 -562q12 -13 30 -11q17 2 29 11l-5 562h59q6 -46 64 -48q86 -3 88 67q1 29 -31 47q-26 13 -55 12q-39 -1 -57 -22l-214 1q-1 22 -42 32q-15 4 -27 4zM319 817q8 0 18 -6
q17 -9 17 -24q0 -7 -3 -15q-5 -14 -16 -14q-9 0 -22 8q-20 12 -20 24q0 7 5 14q9 13 21 13zM668 802q6 0 15 -4q18 -8 18 -21q0 -7 -3 -14q-6 -15 -18 -15q-8 0 -20 6q-19 10 -19 21q0 6 4 13q9 14 23 14z" />
  </font>
</defs>
</svg>
